<svg width="95" height="105" viewBox="0 0 95 105" fill="none" xmlns="http://www.w3.org/2000/svg">
<path d="M65.0437 36.6423C56.1665 21.4975 40.5977 11.5275 33.923 8.43557L11.5897 43.6667C14.9696 45.3826 22.8661 50.7252 27.4125 58.3687L65.0437 36.6423Z" fill="#C8E2F4"/>
<path d="M33.923 8.43557C40.5977 11.5275 56.1665 21.4975 65.0437 36.6423M11.5897 43.6667C14.9696 45.3826 22.8661 50.7252 27.4125 58.3687" stroke="#5DB3EF" stroke-width="2.5"/>
<path d="M42.1339 59.0373L28.1314 67.1216L24.0171 59.9954L68.6498 34.2267L72.7641 41.3529L58.5116 49.5816M42.1339 59.0373L50.2102 63.2092L53.9636 69.7103M42.1339 59.0373L58.5116 49.5816M58.5116 49.5816L57.3363 59.0949L61.0897 65.596M53.9636 69.7103L64.6824 88.2759C65.8185 90.2437 68.3348 90.9179 70.3026 89.7818V89.7818C72.2705 88.6457 72.9447 86.1294 71.8086 84.1616L61.0897 65.596M53.9636 69.7103L61.0897 65.596" stroke="black" stroke-width="2.5"/>
</svg>
