<svg width="110" height="57" viewBox="0 0 110 57" fill="none" xmlns="http://www.w3.org/2000/svg">
<path d="M25.948 25.6765L15.5231 36.2671C9.3575 43.7649 14.6912 55.0564 24.3985 55.0564H76.7124C84.3502 55.0564 91.5408 51.4552 96.1155 45.3391C103.852 34.9959 102.115 20.4024 92.1667 12.1642L89.9399 10.3201C82.2978 3.99154 71.8212 2.31364 62.5849 5.93898L45.9448 12.4704C38.4268 15.4213 31.6137 19.9208 25.948 25.6765Z" stroke="#101932" stroke-width="2.5" stroke-linecap="round"/>
<circle cx="34.0708" cy="34.8877" r="12.1621" stroke="#101932" stroke-width="2.5"/>
<circle cx="71.0911" cy="28.5114" r="19.1702" stroke="#101932" stroke-width="2.5"/>
<circle cx="71.091" cy="28.5114" r="16.1461" fill="#C8E2F4"/>
<circle cx="34.0706" cy="34.8877" r="9.66142" fill="#C8E2F4"/>
<mask id="path-6-inside-1" fill="white">
<path d="M58.8004 28.5114C58.2399 28.5114 57.7816 28.9665 57.8243 29.5252C58.0282 32.1946 59.0338 34.7492 60.721 36.8479C62.4081 38.9467 64.6869 40.4778 67.25 41.2506C67.7866 41.4124 68.3294 41.0626 68.4499 40.5153C68.5703 39.968 68.2223 39.4311 67.6881 39.2619C65.5761 38.5934 63.7 37.3146 62.3027 35.5764C60.9054 33.8382 60.0597 31.7311 59.8607 29.5248C59.8103 28.9667 59.3608 28.5114 58.8004 28.5114Z"/>
</mask>
<path d="M58.8004 28.5114C58.2399 28.5114 57.7816 28.9665 57.8243 29.5252C58.0282 32.1946 59.0338 34.7492 60.721 36.8479C62.4081 38.9467 64.6869 40.4778 67.25 41.2506C67.7866 41.4124 68.3294 41.0626 68.4499 40.5153C68.5703 39.968 68.2223 39.4311 67.6881 39.2619C65.5761 38.5934 63.7 37.3146 62.3027 35.5764C60.9054 33.8382 60.0597 31.7311 59.8607 29.5248C59.8103 28.9667 59.3608 28.5114 58.8004 28.5114Z" stroke="#5DB3EF" stroke-width="5" mask="url(#path-6-inside-1)"/>
<mask id="path-7-inside-2" fill="white">
<path d="M27.569 32.8734C27.1355 32.7787 26.7027 33.0534 26.6552 33.4946C26.5495 34.4756 26.6393 35.4705 26.9223 36.4212C27.282 37.6293 27.942 38.7266 28.8407 39.6105C29.7394 40.4944 30.8474 41.1361 32.0614 41.4757C33.0166 41.7429 34.0129 41.8162 34.9919 41.6943C35.4323 41.6395 35.6998 41.2022 35.598 40.7703C35.4961 40.3384 35.0631 40.0767 34.6213 40.1185C33.9089 40.1858 33.1878 40.1221 32.4943 39.9281C31.5419 39.6617 30.6726 39.1583 29.9675 38.4648C29.2624 37.7714 28.7447 36.9105 28.4625 35.9627C28.257 35.2725 28.1814 34.5525 28.2369 33.8391C28.2714 33.3966 28.0026 32.968 27.569 32.8734Z"/>
</mask>
<path d="M27.569 32.8734C27.1355 32.7787 26.7027 33.0534 26.6552 33.4946C26.5495 34.4756 26.6393 35.4705 26.9223 36.4212C27.282 37.6293 27.942 38.7266 28.8407 39.6105C29.7394 40.4944 30.8474 41.1361 32.0614 41.4757C33.0166 41.7429 34.0129 41.8162 34.9919 41.6943C35.4323 41.6395 35.6998 41.2022 35.598 40.7703C35.4961 40.3384 35.0631 40.0767 34.6213 40.1185C33.9089 40.1858 33.1878 40.1221 32.4943 39.9281C31.5419 39.6617 30.6726 39.1583 29.9675 38.4648C29.2624 37.7714 28.7447 36.9105 28.4625 35.9627C28.257 35.2725 28.1814 34.5525 28.2369 33.8391C28.2714 33.3966 28.0026 32.968 27.569 32.8734Z" stroke="#5DB3EF" stroke-width="5" mask="url(#path-7-inside-2)"/>
</svg>
