<svg width="86" height="83" viewBox="0 0 86 83" fill="none" xmlns="http://www.w3.org/2000/svg">
<path fill-rule="evenodd" clip-rule="evenodd" d="M66.8628 17.6722H46.4856V15.4923H66.8628C68.3108 15.4923 69.6261 16.3357 70.2304 17.6515L83.9703 47.5686C84.5601 48.8529 84.8655 50.2494 84.8655 51.6627V63.6557C84.8655 68.5918 80.864 72.5933 75.9279 72.5933H45.9941V70.4134H75.9279C79.6601 70.4134 82.6856 67.3879 82.6856 63.6557V51.6627C82.6856 50.5635 82.4481 49.4773 81.9893 48.4784L68.2495 18.5613C68.0006 18.0195 67.459 17.6722 66.8628 17.6722Z" fill="#101932"/>
<path d="M3.02091 48.0236L16.7608 18.1065C17.1873 17.1777 18.1158 16.5824 19.1379 16.5824H25.5462C32.511 16.5824 38.732 12.2264 41.1142 5.68166L42.9595 0.612061V62.7839C42.9595 67.5996 39.0556 71.5035 34.2399 71.5035H10.0728C5.7387 71.5035 2.2252 67.99 2.2252 63.6558V51.6628C2.2252 50.4066 2.49663 49.1652 3.02091 48.0236Z" fill="#C8E2F4"/>
<path fill-rule="evenodd" clip-rule="evenodd" d="M44.0493 0.612055L41.9352 0.239258L40.0899 5.30886C37.8645 11.423 32.0526 15.4924 25.5461 15.4924H19.1378C17.6898 15.4924 16.3745 16.3357 15.7702 17.6516L2.03033 47.5687C1.44051 48.853 1.13515 50.2495 1.13515 51.6628V63.6558C1.13515 68.5919 5.13664 72.5934 10.0727 72.5934H34.2398C39.6574 72.5934 44.0493 68.2015 44.0493 62.7839V0.612055ZM41.8694 6.74775V62.7839C41.8694 66.9976 38.4535 70.4135 34.2398 70.4135H10.0727C6.34056 70.4135 3.31505 67.388 3.31505 63.6558V51.6628C3.31505 50.5636 3.55255 49.4774 4.01129 48.4785L17.7512 18.5614C18 18.0196 18.5416 17.6723 19.1378 17.6723H25.5461C32.7203 17.6723 39.1542 13.3357 41.8694 6.74775Z" fill="#101932"/>
<path fill-rule="evenodd" clip-rule="evenodd" d="M79.0863 55.7822C78.5117 52.5837 75.0452 50.8148 72.1182 52.2264L64.9671 55.6751C63.896 56.1917 63.2152 57.2758 63.2152 58.465C63.2152 60.1757 64.6019 61.5625 66.3126 61.5625H74.2518C77.3121 61.5625 79.6273 58.7943 79.0863 55.7822ZM73.0651 54.1899C74.6931 53.4047 76.6211 54.3886 76.9407 56.1676C77.2417 57.8429 75.9539 59.3826 74.2518 59.3826H66.3126C65.8059 59.3826 65.3951 58.9718 65.3951 58.465C65.3951 58.1128 65.5967 57.7916 65.914 57.6386L73.0651 54.1899Z" fill="#101932"/>
<path d="M7.98707 55.9749C8.43414 53.4861 11.1314 52.1097 13.4089 53.2081L20.56 56.6568C21.2542 56.9916 21.6955 57.6943 21.6955 58.465C21.6955 59.5737 20.7967 60.4725 19.688 60.4725H11.7488C9.36754 60.4725 7.56606 58.3186 7.98707 55.9749Z" fill="#5DB3EF"/>
<path fill-rule="evenodd" clip-rule="evenodd" d="M6.91373 55.7822C7.48829 52.5837 10.9548 50.8148 13.8818 52.2264L21.0329 55.6751C22.104 56.1917 22.7848 57.2758 22.7848 58.465C22.7848 60.1757 21.3981 61.5625 19.6874 61.5625H11.7482C8.68788 61.5625 6.37265 58.7943 6.91373 55.7822ZM12.9349 54.1899C11.3069 53.4047 9.37885 54.3886 9.05928 56.1676C8.75834 57.8429 10.0461 59.3826 11.7482 59.3826H19.6874C20.1941 59.3826 20.6049 58.9718 20.6049 58.465C20.6049 58.1128 20.4033 57.7916 20.086 57.6386L12.9349 54.1899Z" fill="#101932"/>
<path fill-rule="evenodd" clip-rule="evenodd" d="M56.9604 59.3899H45.9941V57.21H56.9604C59.0071 57.21 60.6662 58.8691 60.6662 60.9158V64.2838C60.6662 66.3305 59.0071 67.9896 56.9604 67.9896H45.9941V65.8097H56.9604C57.8032 65.8097 58.4863 65.1265 58.4863 64.2838V60.9158C58.4863 60.073 57.8032 59.3899 56.9604 59.3899Z" fill="#101932"/>
<path fill-rule="evenodd" clip-rule="evenodd" d="M29.0401 59.3899H40.0063V57.21H29.0401C26.9934 57.21 25.3343 58.8691 25.3343 60.9158V64.2838C25.3343 66.3305 26.9934 67.9896 29.0401 67.9896H36.5853V65.8097H29.0401C28.1973 65.8097 27.5142 65.1265 27.5142 64.2838V60.9158C27.5142 60.073 28.1973 59.3899 29.0401 59.3899Z" fill="#101932"/>
<path fill-rule="evenodd" clip-rule="evenodd" d="M78.0203 72.7777H71.1867V77.6672C71.1867 78.8711 72.1627 79.8471 73.3666 79.8471H75.8404C77.0443 79.8471 78.0203 78.8711 78.0203 77.6672V72.7777ZM69.0068 70.5978V77.6672C69.0068 80.075 70.9588 82.027 73.3666 82.027H75.8404C78.2482 82.027 80.2002 80.075 80.2002 77.6672V70.5978H69.0068Z" fill="#101932"/>
<path fill-rule="evenodd" clip-rule="evenodd" d="M7.97972 72.7777H14.8133V77.6672C14.8133 78.8711 13.8373 79.8471 12.6334 79.8471H10.1596C8.95569 79.8471 7.97972 78.8711 7.97972 77.6672V72.7777ZM16.9932 70.5978V77.6672C16.9932 80.075 15.0412 82.027 12.6334 82.027H10.1596C7.75176 82.027 5.79982 80.075 5.79982 77.6672V70.5978H16.9932Z" fill="#101932"/>
<path fill-rule="evenodd" clip-rule="evenodd" d="M74.3589 31.7957L77.3826 38.4385H82.9364C84.3811 38.4385 85.5522 37.2673 85.5522 35.8226V34.4115C85.5522 32.9668 84.3811 31.7957 82.9364 31.7957H74.3589ZM77.7462 33.9756L78.7854 36.2586H82.9364C83.1771 36.2586 83.3723 36.0634 83.3723 35.8226V34.4115C83.3723 34.1707 83.1771 33.9756 82.9364 33.9756H77.7462Z" fill="#101932"/>
<path fill-rule="evenodd" clip-rule="evenodd" d="M11.6416 31.7957L8.61789 38.4385H3.06413C1.61942 38.4385 0.448256 37.2673 0.448256 35.8226V34.4115C0.448256 32.9668 1.61943 31.7957 3.06413 31.7957H11.6416ZM8.25425 33.9756L7.21504 36.2586H3.06413C2.82335 36.2586 2.62815 36.0634 2.62815 35.8226V34.4115C2.62815 34.1707 2.82335 33.9756 3.06413 33.9756H8.25425Z" fill="#101932"/>
<path fill-rule="evenodd" clip-rule="evenodd" d="M65.1287 21.654H46.4423V19.4741H66.5161L77.0386 41.9872H46.1357V39.8073H73.6135L65.1287 21.654Z" fill="#101932"/>
<path fill-rule="evenodd" clip-rule="evenodd" d="M20.8713 21.654H39.5577V19.4741H19.4839L8.96141 41.9872H39.8643V39.8073H12.3865L20.8713 21.654Z" fill="#101932"/>
</svg>
