<svg width="67" height="77" viewBox="0 0 67 77" fill="none" xmlns="http://www.w3.org/2000/svg">
<path fill-rule="evenodd" clip-rule="evenodd" d="M2.26456 2.43558V73.9536H41.184C41.1578 65.0213 45.6397 47.5208 64.2699 40.1829C66.37 20.0295 50.5597 2.4357 30.2417 2.43565L2.26456 2.43558ZM0.0585938 2.06792C0.0585938 1.05266 0.881622 0.229612 1.8969 0.229614L30.2417 0.229688C52.0045 0.229745 68.909 19.192 66.42 40.8121C66.3512 41.4102 65.9486 41.9001 65.4134 42.1052C47.4264 48.9992 43.2553 65.9189 43.393 74.2667C43.4098 75.2818 42.6008 76.1596 41.5423 76.1596H1.8969C0.881634 76.1596 0.0585938 75.3366 0.0585938 74.3213V2.06792Z" fill="#101932"/>
<path opacity="0.3" d="M58.6731 30.2982H23.5327L23.5039 27.1564L37.6519 6.62C48.517 9.43806 57.0582 18.4078 58.9986 29.9132C59.0326 30.1146 58.8773 30.2982 58.6731 30.2982Z" fill="#5DB3EF"/>
<path d="M23.5039 27.1974L37.6519 6.66101L42.6692 22.6352C36.6759 22.8621 30.7719 24.1621 25.2375 26.4734L23.5039 27.1974Z" fill="#5DB3EF"/>
<path fill-rule="evenodd" clip-rule="evenodd" d="M6.5629 7.2587V29.6596H58.7359C56.1095 16.6704 44.6779 7.2587 31.3416 7.2587H6.5629ZM4.35693 6.82474C4.35693 5.8461 5.15028 5.05273 6.12894 5.05273H31.3416C46.0613 5.05273 58.6302 15.6794 61.0782 30.1941C61.2257 31.0685 60.5517 31.8656 59.665 31.8656H6.19524C5.17997 31.8656 4.35693 31.0425 4.35693 30.0273V6.82474Z" fill="#101932"/>
<path fill-rule="evenodd" clip-rule="evenodd" d="M47.2979 37.4817H38.0413C37.6476 37.4817 37.3285 37.8008 37.3285 38.1945C37.3285 38.5882 37.6476 38.9073 38.0413 38.9073H47.2979C47.6915 38.9073 48.0107 38.5882 48.0107 38.1945C48.0107 37.8008 47.6915 37.4817 47.2979 37.4817ZM38.0413 35.2758C36.4293 35.2758 35.1226 36.5825 35.1226 38.1945C35.1226 39.8065 36.4293 41.1133 38.0413 41.1133H47.2979C48.9099 41.1133 50.2166 39.8065 50.2166 38.1945C50.2166 36.5825 48.9099 35.2758 47.2979 35.2758H38.0413Z" fill="#101932"/>
<path fill-rule="evenodd" clip-rule="evenodd" d="M2.26456 2.43546V73.9535H41.184C41.1578 65.0211 45.6397 47.5207 64.2699 40.1828C66.37 20.0294 50.5597 2.43558 30.2417 2.43553L2.26456 2.43546ZM0.0585938 2.06779C0.0585938 1.05253 0.881622 0.22949 1.8969 0.229492L30.2417 0.229566C52.0045 0.229623 68.909 19.1919 66.42 40.812C66.3512 41.4101 65.9486 41.9 65.4134 42.1051C47.4264 48.9991 43.2553 65.9187 43.393 74.2665C43.4098 75.2816 42.6008 76.1595 41.5423 76.1595H1.8969C0.881634 76.1595 0.0585938 75.3364 0.0585938 74.3212V2.06779Z" fill="#101932"/>
</svg>
