<svg width="118" height="118" viewBox="0 0 118 118" fill="none" xmlns="http://www.w3.org/2000/svg">
<path d="M117.624 59.1765C117.624 91.6575 91.293 117.989 58.812 117.989C26.331 117.989 0 91.6575 0 59.1765C0 26.6955 26.331 0.364502 58.812 0.364502C91.293 0.364502 117.624 26.6955 117.624 59.1765Z" fill="#F7F7F7"/>
<path fill-rule="evenodd" clip-rule="evenodd" d="M37.1847 29.2639V91.6397H71.129C71.1062 83.8492 75.0151 68.5858 91.2637 62.186C93.0954 44.6088 79.3062 29.264 61.5854 29.264L37.1847 29.2639ZM35.2607 28.9433C35.2607 28.0578 35.9786 27.34 36.8641 27.34L61.5854 27.34C80.5663 27.3401 95.3099 43.8784 93.139 62.7347C93.079 63.2564 92.7279 63.6836 92.2611 63.8626C76.5734 69.8752 72.9356 84.632 73.0556 91.9127C73.0702 92.7981 72.3647 93.5637 71.4415 93.5637H36.8641C35.9786 93.5637 35.2607 92.8458 35.2607 91.9604V28.9433Z" fill="#101932"/>
<path opacity="0.3" d="M86.3824 53.5649H55.7341L55.709 50.8247L68.0484 32.9135C77.5246 35.3713 84.974 43.1944 86.6663 53.229C86.696 53.4047 86.5606 53.5649 86.3824 53.5649Z" fill="#5DB3EF"/>
<path d="M55.709 50.8604L68.0484 32.9492L72.4243 46.8814C67.1972 47.0793 62.0479 48.2131 57.221 50.229L55.709 50.8604Z" fill="#5DB3EF"/>
<path fill-rule="evenodd" clip-rule="evenodd" d="M40.9337 33.4705V53.0079H86.4373C84.1467 41.679 74.1765 33.4705 62.5449 33.4705H40.9337ZM39.0098 33.092C39.0098 32.2385 39.7017 31.5465 40.5553 31.5465H62.5449C75.383 31.5465 86.3452 40.8148 88.4802 53.474C88.6089 54.2366 88.0211 54.9318 87.2477 54.9318H40.6131C39.7276 54.9318 39.0098 54.214 39.0098 53.3285V33.092Z" fill="#101932"/>
<path fill-rule="evenodd" clip-rule="evenodd" d="M76.4612 59.8301H68.3879C68.0446 59.8301 67.7663 60.1084 67.7663 60.4518C67.7663 60.7951 68.0446 61.0734 68.3879 61.0734H76.4612C76.8046 61.0734 77.0829 60.7951 77.0829 60.4518C77.0829 60.1084 76.8046 59.8301 76.4612 59.8301ZM68.3879 57.9061C66.982 57.9061 65.8423 59.0458 65.8423 60.4518C65.8423 61.8577 66.982 62.9974 68.3879 62.9974H76.4612C77.8671 62.9974 79.0069 61.8577 79.0069 60.4518C79.0069 59.0458 77.8671 57.9061 76.4612 57.9061H68.3879Z" fill="#101932"/>
<path fill-rule="evenodd" clip-rule="evenodd" d="M37.1847 29.2638V91.6396H71.129C71.1062 83.8491 75.0151 68.5857 91.2637 62.1859C93.0954 44.6087 79.3062 29.2639 61.5854 29.2639L37.1847 29.2638ZM35.2607 28.9432C35.2607 28.0577 35.9786 27.3398 36.8641 27.3398L61.5854 27.3399C80.5663 27.34 95.3099 43.8783 93.139 62.7346C93.079 63.2563 92.7279 63.6835 92.2611 63.8624C76.5734 69.8751 72.9356 84.6319 73.0556 91.9126C73.0702 92.7979 72.3647 93.5635 71.4415 93.5635H36.8641C35.9786 93.5635 35.2607 92.8457 35.2607 91.9602V28.9432Z" fill="#101932"/>
</svg>
