<svg width="118" height="118" viewBox="0 0 118 118" fill="none" xmlns="http://www.w3.org/2000/svg">
<path d="M117.624 58.9285C117.624 91.4094 91.293 117.74 58.812 117.74C26.331 117.74 0 91.4094 0 58.9285C0 26.4475 26.331 0.116455 58.812 0.116455C91.293 0.116455 117.624 26.4475 117.624 58.9285Z" fill="#F7F7F7"/>
<path fill-rule="evenodd" clip-rule="evenodd" d="M34.753 60.4872C35.1992 60.1989 35.7947 60.3269 36.0831 60.7731L42.6697 70.9666C42.958 71.4129 42.83 72.0084 42.3838 72.2967C41.9375 72.5851 41.342 72.4571 41.0537 72.0108L34.4671 61.8173C34.1788 61.3711 34.3068 60.7756 34.753 60.4872Z" fill="#5DB3EF"/>
<path fill-rule="evenodd" clip-rule="evenodd" d="M35.228 52.7153C35.6758 52.4294 36.2706 52.5605 36.5565 53.0083L40.0067 58.4106C40.2927 58.8584 40.1615 59.4532 39.7137 59.7391C39.266 60.0251 38.6711 59.8939 38.3852 59.4462L34.935 54.0438C34.6491 53.5961 34.7803 53.0013 35.228 52.7153Z" fill="#5DB3EF"/>
<path fill-rule="evenodd" clip-rule="evenodd" d="M62.5451 32.6445C62.9915 32.3564 63.5869 32.4849 63.875 32.9313L68.9376 40.7788C69.2256 41.2252 69.0972 41.8206 68.6507 42.1087C68.2043 42.3967 67.6089 42.2682 67.3209 41.8218L62.2582 33.9743C61.9702 33.5279 62.0986 32.9325 62.5451 32.6445Z" fill="#5DB3EF"/>
<path fill-rule="evenodd" clip-rule="evenodd" d="M73.3518 42.8139C73.7931 42.5181 74.3907 42.6361 74.6865 43.0774L78.024 48.0569C78.3198 48.4982 78.2019 49.0958 77.7606 49.3916C77.3192 49.6874 76.7217 49.5694 76.4259 49.1281L73.0883 44.1486C72.7925 43.7073 72.9105 43.1097 73.3518 42.8139Z" fill="#5DB3EF"/>
<path fill-rule="evenodd" clip-rule="evenodd" d="M75.0207 37.8344C75.462 37.5386 76.0596 37.6566 76.3554 38.0979L78.4947 41.2896C78.7905 41.7309 78.6725 42.3285 78.2312 42.6243C77.7898 42.9201 77.1923 42.8021 76.8965 42.3608L74.7572 39.1691C74.4614 38.7278 74.5794 38.1302 75.0207 37.8344Z" fill="#5DB3EF"/>
<path fill-rule="evenodd" clip-rule="evenodd" d="M84.0872 29.9779H32.1959V86.3061H84.0872V29.9779ZM30.272 28.0539V88.23H86.0112V28.0539H30.272Z" fill="#101932"/>
<path fill-rule="evenodd" clip-rule="evenodd" d="M19.872 65.951C19.81 66.0747 19.7096 66.1751 19.5858 66.2371L15.9473 68.0598C15.4752 68.2963 15.4752 68.9701 15.9473 69.2066L19.5858 71.0293C19.7096 71.0913 19.81 71.1917 19.872 71.3155L21.6947 74.954C21.9312 75.4261 22.605 75.4261 22.8415 74.954L24.6642 71.3155C24.7262 71.1917 24.8266 71.0913 24.9504 71.0293L28.5889 69.2066C29.061 68.9701 29.061 68.2963 28.5889 68.0598L24.9504 66.2371C24.8266 66.1751 24.7262 66.0747 24.6642 65.951L22.8415 62.3125C22.605 61.8403 21.9312 61.8403 21.6947 62.3125L19.872 65.951ZM22.2681 65.4634L21.5922 66.8127C21.3442 67.3078 20.9427 67.7093 20.4476 67.9573L19.0983 68.6332L20.4476 69.3091C20.9427 69.5571 21.3442 69.9587 21.5922 70.4537L22.2681 71.803L22.944 70.4537C23.192 69.9587 23.5936 69.5571 24.0886 69.3091L25.4379 68.6332L24.0886 67.9573C23.5936 67.7093 23.192 67.3078 22.944 66.8127L22.2681 65.4634Z" fill="#5DB3EF"/>
<path fill-rule="evenodd" clip-rule="evenodd" d="M38.0093 34.7184C37.9473 34.8421 37.8469 34.9425 37.7231 35.0045L34.7105 36.5137C34.2384 36.7502 34.2384 37.424 34.7105 37.6605L37.7231 39.1696C37.8469 39.2316 37.9473 39.332 38.0093 39.4558L39.5184 42.4684C39.7549 42.9405 40.4287 42.9405 40.6652 42.4684L42.1744 39.4558C42.2364 39.332 42.3368 39.2316 42.4605 39.1696L45.4731 37.6605C45.9452 37.424 45.9452 36.7502 45.4731 36.5137L42.4605 35.0045C42.3368 34.9425 42.2364 34.8421 42.1744 34.7184L40.6652 31.7058C40.4287 31.2337 39.7549 31.2337 39.5184 31.7058L38.0093 34.7184ZM40.0918 34.8568L39.7295 35.5801C39.4815 36.0752 39.0799 36.4767 38.5849 36.7247L37.8615 37.0871L38.5849 37.4494C39.0799 37.6974 39.4815 38.099 39.7295 38.5941L40.0918 39.3174L40.4542 38.5941C40.7022 38.099 41.1037 37.6974 41.5988 37.4494L42.3222 37.0871L41.5988 36.7247C41.1037 36.4767 40.7022 36.0752 40.4542 35.5801L40.0918 34.8568Z" fill="#5DB3EF"/>
<path fill-rule="evenodd" clip-rule="evenodd" d="M67.9205 63.7196L58.6279 69.8265C58.9995 70.3919 59.4585 70.866 59.9756 71.2431C61.7913 72.5673 64.3241 72.6966 66.3096 71.3918C68.295 70.087 69.1812 67.7108 68.6861 65.5187C68.5451 64.8944 68.2921 64.285 67.9205 63.7196ZM66.8961 66.6951L61.7657 70.0667C62.8577 70.5525 64.1756 70.4919 65.2529 69.7839C66.3302 69.0759 66.9087 67.8902 66.8961 66.6951Z" fill="#101932"/>
<path d="M63.0498 71.1885L67.416 68.3192L81.5955 89.8954C82.3879 91.1011 82.0528 92.7208 80.8471 93.5132C79.6414 94.3056 78.0217 93.9705 77.2293 92.7648L63.0498 71.1885Z" fill="#F6F6F6"/>
<path fill-rule="evenodd" clip-rule="evenodd" d="M66.8648 70.9836L65.7143 71.7397L78.8372 91.7082C79.0459 92.0259 79.4728 92.1142 79.7905 91.9054C80.1082 91.6966 80.1965 91.2698 79.9877 90.9521L66.8648 70.9836ZM63.0498 71.1885L77.2293 92.7648C78.0217 93.9705 79.6414 94.3056 80.8471 93.5132C82.0528 92.7208 82.3879 91.1011 81.5955 89.8954L67.416 68.3192L63.0498 71.1885Z" fill="#101932"/>
<path fill-rule="evenodd" clip-rule="evenodd" d="M44.4638 74.9454L45.3049 76.2253C45.8885 77.1133 47.0814 77.3601 47.9694 76.7765L78.5295 56.693C79.4175 56.1094 79.6643 54.9165 79.0807 54.0285L78.2396 52.7486L44.4638 74.9454ZM42.3353 74.042C42.0393 74.2365 41.957 74.6342 42.1515 74.9302L43.6971 77.2819C44.8642 79.0579 47.2501 79.5515 49.0261 78.3843L79.5862 58.3008C81.3621 57.1337 81.8557 54.7478 80.6886 52.9719L79.143 50.6201C78.9485 50.3241 78.5508 50.2418 78.2549 50.4363L42.3353 74.042Z" fill="#101932"/>
</svg>
