<svg width="118" height="119" viewBox="0 0 118 119" fill="none" xmlns="http://www.w3.org/2000/svg">
<path d="M117.624 59.5525C117.624 92.0335 91.293 118.364 58.812 118.364C26.331 118.364 0 92.0335 0 59.5525C0 27.0715 26.331 0.740479 58.812 0.740479C91.293 0.740479 117.624 27.0715 117.624 59.5525Z" fill="#F7F7F7"/>
<path fill-rule="evenodd" clip-rule="evenodd" d="M37.7394 36.4603C37.46 36.8907 37.251 37.5243 37.251 38.4848C37.251 39.8721 37.7635 40.6167 38.3215 41.058C38.9252 41.5354 39.6808 41.7312 40.2182 41.8054C40.9789 41.9104 41.6985 42.5536 41.6985 43.4612V48.3649H49.1154C49.5463 45.5712 51.8237 43.6587 54.2035 42.4302C56.3541 41.3201 58.7935 40.6521 60.6697 40.3278V35.0387H42.7586C41.405 35.0387 39.9983 35.0531 38.922 35.5125C38.4139 35.7294 38.0173 36.0324 37.7394 36.4603ZM62.5937 35.0387V40.1922H65.051V35.0387H62.5937ZM61.6951 42.1161H65.3716C66.2571 42.1161 66.9749 41.3983 66.9749 40.5128V34.7181C66.9749 33.8329 66.2575 33.1148 65.3718 33.1148H42.7586C42.7319 33.1148 42.705 33.1148 42.6778 33.1148C41.4229 33.1145 39.6403 33.114 38.1667 33.743C37.3839 34.0771 36.6529 34.6007 36.1258 35.4126C35.6003 36.2219 35.327 37.2413 35.327 38.4848C35.327 40.4438 36.0959 41.7507 37.128 42.567C38.0335 43.2831 39.071 43.5676 39.7745 43.6839V49.3269C39.7745 51.8176 39.6086 52.8055 39.1001 54.3143C38.9386 54.7935 38.7289 55.3577 38.47 56.0538C37.9134 57.5506 37.1299 59.6577 36.1112 62.8433C34.9047 66.6159 34.2844 71.9813 33.9894 77.1631C33.6931 82.3665 33.7209 87.4719 33.842 90.7714C33.8737 91.6359 34.5851 92.3117 35.442 92.3117H61.2999C62.1836 92.3117 62.9032 91.5965 62.9032 90.7093V79.634C62.9032 76.3483 61.7172 73.2017 60.1553 70.5076C58.5905 67.8087 56.6147 65.5053 54.9485 63.8857C54.164 63.1232 53.7528 62.0959 53.868 61.0971C54.0136 59.835 53.6616 58.5658 52.8868 57.559L52.3308 56.8366C51.9747 56.3739 51.8373 55.7791 51.9544 55.207L51.9732 55.1147C52.185 54.0798 51.9473 53.0037 51.3192 52.1543C51.0901 51.8446 50.9665 51.4695 50.9665 51.0843V49.3269C50.9665 47.5007 52.1052 46.0126 53.8929 44.8341C54.0868 45.6593 54.4276 46.5739 54.9722 47.4334C55.9076 48.9094 57.452 50.2271 59.8311 50.6016C60.3559 50.6842 60.8483 50.3257 60.931 49.8009C61.0136 49.2761 60.6551 48.7837 60.1303 48.701C58.3778 48.4252 57.2828 47.4853 56.5974 46.4036C56.054 45.546 55.7734 44.6026 55.6626 43.8573C57.7405 42.8903 60.0634 42.3351 61.6951 42.1161ZM49.0426 50.2889H41.6887C41.644 52.2869 41.439 53.3989 40.9233 54.9288C40.7259 55.5145 40.4981 56.1258 40.2259 56.8563C39.6807 58.3189 38.9575 60.2594 37.9437 63.4294C36.8158 66.9565 36.2038 72.1165 35.9103 77.2725C35.6272 82.2447 35.644 87.1328 35.7536 90.3877H60.9793V79.634C60.9793 76.8021 59.9516 73.9921 58.4908 71.4727C57.0329 68.9581 55.1771 66.791 53.6075 65.2654C52.4605 64.1505 51.7632 62.5536 51.9567 60.8766C52.045 60.1117 51.8317 59.3426 51.3621 58.7324L50.8061 58.0101C50.1092 57.1045 49.8404 55.9408 50.0695 54.8213L50.0883 54.729C50.1907 54.2288 50.0758 53.7087 49.7722 53.2982C49.2983 52.6574 49.0426 51.8814 49.0426 51.0843V50.2889Z" fill="#101932"/>
<path fill-rule="evenodd" clip-rule="evenodd" d="M87.2962 24.057C87.5797 24.5063 87.4453 25.1004 86.996 25.3839L85.5721 26.2823C85.1228 26.5658 84.5287 26.4314 84.2452 25.982C83.9617 25.5327 84.0961 24.9386 84.5454 24.6551L85.9693 23.7567C86.4186 23.4732 87.0127 23.6077 87.2962 24.057ZM83.0246 26.7522C83.3081 27.2015 83.1737 27.7956 82.7243 28.0791L79.8766 29.8759C79.4273 30.1594 78.8332 30.025 78.5497 29.5756C78.2662 29.1263 78.4006 28.5322 78.85 28.2487L81.6977 26.4519C82.147 26.1684 82.7411 26.3029 83.0246 26.7522ZM77.3291 30.3458C77.6126 30.7951 77.4782 31.3892 77.0289 31.6727L74.1811 33.4694C73.7318 33.753 73.1377 33.6185 72.8542 33.1692C72.5707 32.7199 72.7051 32.1258 73.1545 31.8423L76.0022 30.0455C76.4515 29.762 77.0456 29.8964 77.3291 30.3458ZM71.6336 33.9393C71.9171 34.3887 71.7827 34.9827 71.3334 35.2662L69.9095 36.1646C69.4602 36.4481 68.8661 36.3137 68.5826 35.8644C68.2991 35.4151 68.4335 34.821 68.8829 34.5375L70.3067 33.6391C70.7561 33.3556 71.3501 33.49 71.6336 33.9393Z" fill="#5DB3EF"/>
<path fill-rule="evenodd" clip-rule="evenodd" d="M68.5822 38.8381C68.2987 39.2874 68.4331 39.8815 68.8825 40.165L70.3063 41.0634C70.7557 41.3469 71.3497 41.2124 71.6332 40.7631C71.9167 40.3138 71.7823 39.7197 71.333 39.4362L69.9091 38.5378C69.4598 38.2543 68.8657 38.3887 68.5822 38.8381ZM72.8538 41.5332C72.5703 41.9826 72.7047 42.5766 73.1541 42.8602L76.0018 44.6569C76.4511 44.9404 77.0452 44.806 77.3287 44.3567C77.6122 43.9074 77.4778 43.3133 77.0285 43.0298L74.1807 41.233C73.7314 40.9495 73.1373 41.0839 72.8538 41.5332ZM78.5493 45.1268C78.2658 45.5761 78.4002 46.1702 78.8495 46.4537L81.6973 48.2505C82.1466 48.534 82.7407 48.3996 83.0242 47.9503C83.3077 47.5009 83.1733 46.9069 82.7239 46.6234L79.8762 44.8266C79.4269 44.5431 78.8328 44.6775 78.5493 45.1268ZM84.2448 48.7204C83.9613 49.1697 84.0957 49.7638 84.545 50.0473L85.9689 50.9457C86.4182 51.2292 87.0123 51.0948 87.2958 50.6454C87.5793 50.1961 87.4449 49.602 86.9956 49.3185L85.5717 48.4201C85.1224 48.1366 84.5283 48.2711 84.2448 48.7204Z" fill="#5DB3EF"/>
<path fill-rule="evenodd" clip-rule="evenodd" d="M71.6211 37.1139C71.6211 36.5826 72.0518 36.1519 72.5831 36.1519H74.8206C75.3519 36.1519 75.7826 36.5826 75.7826 37.1139C75.7826 37.6452 75.3519 38.0759 74.8206 38.0759H72.5831C72.0518 38.0759 71.6211 37.6452 71.6211 37.1139ZM78.3336 37.1139C78.3336 36.5826 78.7643 36.1519 79.2956 36.1519H83.7706C84.3019 36.1519 84.7326 36.5826 84.7326 37.1139C84.7326 37.6452 84.3019 38.0759 83.7706 38.0759H79.2956C78.7643 38.0759 78.3336 37.6452 78.3336 37.1139ZM87.2836 37.1139C87.2836 36.5826 87.7143 36.1519 88.2456 36.1519H90.4831C91.0144 36.1519 91.4451 36.5826 91.4451 37.1139C91.4451 37.6452 91.0144 38.0759 90.4831 38.0759H88.2456C87.7143 38.0759 87.2836 37.6452 87.2836 37.1139Z" fill="#5DB3EF"/>
</svg>
