<svg width="84" height="69" viewBox="0 0 84 69" fill="none" xmlns="http://www.w3.org/2000/svg">
<path d="M2.25879 67.577L18.6299 25.5523H75.6087L79.3884 23.8646L61.6672 67.577H2.25879Z" fill="#C8E2F4"/>
<path fill-rule="evenodd" clip-rule="evenodd" d="M73.6752 24.7389C77.5748 24.7389 81.6843 20.3748 81.6843 13.6608C81.6843 6.94674 77.5748 2.58266 73.6752 2.58266C69.7755 2.58266 65.666 6.94674 65.666 13.6608C65.666 20.3748 69.7755 24.7389 73.6752 24.7389ZM73.6752 27.0514C79.3756 27.0514 83.9968 21.0562 83.9968 13.6608C83.9968 6.26534 79.3756 0.270142 73.6752 0.270142C67.9747 0.270142 63.3535 6.26534 63.3535 13.6608C63.3535 21.0562 67.9747 27.0514 73.6752 27.0514Z" fill="#101932"/>
<path fill-rule="evenodd" clip-rule="evenodd" d="M73.6752 17.2767C74.3981 17.2767 75.9323 16.2536 75.9323 13.6608C75.9323 11.0681 74.3981 10.0449 73.6752 10.0449C72.9522 10.0449 71.418 11.0681 71.418 13.6608C71.418 16.2536 72.9522 17.2767 73.6752 17.2767ZM73.6752 19.5893C76.1989 19.5893 78.2448 16.935 78.2448 13.6608C78.2448 10.3867 76.1989 7.73242 73.6752 7.73242C71.1514 7.73242 69.1055 10.3867 69.1055 13.6608C69.1055 16.935 71.1514 19.5893 73.6752 19.5893Z" fill="#101932"/>
<path fill-rule="evenodd" clip-rule="evenodd" d="M19.3979 2.59133C14.5618 2.59133 10.3154 7.33059 10.3154 13.615C10.3154 19.8994 14.5618 24.6387 19.3979 24.6387H74.6461V26.9512H19.3979C12.9247 26.9512 8.00293 20.7842 8.00293 13.615C8.00293 6.44583 12.9247 0.278809 19.3979 0.278809H74.6461V2.59133H19.3979Z" fill="#101932"/>
<path fill-rule="evenodd" clip-rule="evenodd" d="M74.4466 39.2567C70.4058 48.8269 65.5387 60.347 62.2342 68.1445L61.9354 68.8496H0.00292969L0.617009 67.2736L1.69438 67.6934C0.617009 67.2736 0.617009 67.2736 0.617009 67.2736L16.6889 26.025L18.8436 26.8646L3.38582 66.5371H60.4037C63.6975 58.763 68.3955 47.6429 72.3162 38.3572C74.3366 33.5722 76.1504 29.2744 77.4592 26.1729L79.571 21.1677L79.5715 21.1666C79.5715 21.1666 79.5716 21.1663 80.637 21.6157C81.7023 22.0651 81.7022 22.0654 81.7022 22.0654L81.7 22.0706L79.5898 27.072C78.281 30.1736 76.467 34.4715 74.4466 39.2567Z" fill="#101932"/>
<path fill-rule="evenodd" clip-rule="evenodd" d="M51.5156 33.3795C51.9633 33.8349 51.957 34.567 51.5016 35.0146L44.5307 41.8672C44.0753 42.3149 43.3432 42.3086 42.8956 41.8532C42.4479 41.3978 42.4542 40.6657 42.9096 40.2181L49.8805 33.3655C50.3359 32.9178 51.068 32.9241 51.5156 33.3795Z" fill="#5DB3EF"/>
<path fill-rule="evenodd" clip-rule="evenodd" d="M59.8574 31.9576C60.3051 32.413 60.2988 33.1451 59.8434 33.5928L52.8725 40.4453C52.4171 40.893 51.685 40.8867 51.2374 40.4313C50.7897 39.9759 50.796 39.2439 51.2514 38.7962L58.2223 31.9436C58.6777 31.496 59.4098 31.5022 59.8574 31.9576Z" fill="#5DB3EF"/>
<path fill-rule="evenodd" clip-rule="evenodd" d="M60.7573 37.55C61.205 38.0054 61.1987 38.7375 60.7433 39.1852L53.7724 46.0377C53.317 46.4854 52.5849 46.4791 52.1373 46.0237C51.6896 45.5683 51.6959 44.8363 52.1513 44.3886L59.1222 37.536C59.5776 37.0884 60.3097 37.0946 60.7573 37.55Z" fill="#5DB3EF"/>
</svg>
